<svg version="1.1" id="Layer_1" xmlns="http://www.w3.org/2000/svg" xmlns:xlink="http://www.w3.org/1999/xlink" x="0px" y="0px"
	 viewBox="0 0 294.1 66.2" style="enable-background:new 0 0 294.1 66.2;" xml:space="preserve">
<style type="text/css">
	.st0{fill:#FFFFFF;}
	.st1{fill:#FF0000;}
	.st2{fill:none;stroke:#000000;stroke-width:2;stroke-miterlimit:10;}
	.st3{fill:#202020;}
	.st4{fill:#FAFAFA;}
</style>
<g>
	<g>
		<path class="st3" d="M82.3,17.2h6.4v2.1c0,1.1-0.1,1.9-0.1,1.9h0.1c0,0,2.4-4.7,9.1-4.7c7.6,0,12.5,6,12.5,14.8
			c0,9-5.5,14.8-12.9,14.8c-5.6,0-8.1-3.9-8.1-3.9h-0.1c0,0,0.1,1,0.1,2.4v11.9h-7V17.2z M96.1,40.2c3.9,0,7.1-3.2,7.1-8.8
			c0-5.4-2.9-8.9-7-8.9c-3.7,0-7.1,2.7-7.1,8.9C89.1,35.9,91.5,40.2,96.1,40.2z"/>
		<path class="st3" d="M130.5,27.7h0.9v-0.4c0-3.7-2.3-5-5.4-5c-4,0-7.8,2.7-7.8,2.7l-2.7-5c0,0,4.4-3.5,11.1-3.5
			c7.4,0,11.7,4.1,11.7,11.2v17.7h-6.5v-2.3c0-1.1,0.1-2,0.1-2h-0.1c0.1,0-2.2,5-8.6,5c-5,0-9.6-3.2-9.6-8.8
			C113.7,28.3,125.9,27.7,130.5,27.7z M125.1,40.6c3.7,0,6.4-4,6.4-7.4v-0.7h-1.2c-3.6,0-9.4,0.5-9.4,4.4
			C120.8,38.9,122.2,40.6,125.1,40.6z"/>
		<path class="st3" d="M145.7,17.2h6.8v4.9c0,1.1-0.1,2-0.1,2h0.1c1.3-4,4.7-7.3,9-7.3c0.7,0,1.3,0.1,1.3,0.1v6.9
			c0,0-0.7-0.1-1.7-0.1c-3,0-6.4,1.7-7.7,5.9c-0.4,1.4-0.6,2.9-0.6,4.6v11.2h-7V17.2z"/>
		<path class="st3" d="M168.7,23.2H165v-5.6h3.8V9.5h6.9v8.1h6.4v5.6h-6.4v11c0,4.7,3.7,5.3,5.6,5.3c0.8,0,1.3-0.1,1.3-0.1v6.2
			c0,0-0.8,0.2-2.2,0.2c-3.9,0-11.7-1.2-11.7-10.6V23.2z"/>
		<path class="st3" d="M188.3,17.2h6.8v3.3c0,1.1-0.1,1.9-0.1,1.9h0.1c1.2-2.4,4.3-5.9,10-5.9c6.3,0,9.8,3.3,9.8,10.7v18.2h-7V28.7
			c0-3.4-0.9-5.8-4.5-5.8c-3.8,0-6.5,2.4-7.6,5.8c-0.4,1.2-0.5,2.4-0.5,3.8v13h-7V17.2z"/>
		<path class="st3" d="M234.7,16.5c8.1,0,12.5,5.9,12.5,13.4c0,0.8-0.2,2.7-0.2,2.7h-19.5c0.4,4.9,4.3,7.5,8.5,7.5
			c4.5,0,8.1-3.1,8.1-3.1l2.7,5c0,0-4.3,4-11.4,4c-9.4,0-15.2-6.8-15.2-14.8C220.3,22.6,226.2,16.5,234.7,16.5z M240.1,27.8
			c-0.1-3.8-2.5-5.9-5.6-5.9c-3.6,0-6.1,2.2-6.8,5.9H240.1z"/>
		<path class="st3" d="M253,17.2h6.8v4.9c0,1.1-0.1,2-0.1,2h0.1c1.3-4,4.7-7.3,9-7.3c0.7,0,1.3,0.1,1.3,0.1v6.9c0,0-0.7-0.1-1.7-0.1
			c-3,0-6.4,1.7-7.7,5.9c-0.4,1.4-0.6,2.9-0.6,4.6v11.2h-7V17.2z"/>
		<path class="st3" d="M275.6,37c0,0,3.1,3.1,7.7,3.1c2,0,3.7-0.9,3.7-2.6c0-4.2-13.7-3.7-13.7-12.7c0-5.3,4.7-8.3,10.8-8.3
			c6.4,0,9.5,3.2,9.5,3.2l-2.6,5.2c0,0-2.6-2.4-6.9-2.4c-1.8,0-3.6,0.8-3.6,2.6c0,4,13.7,3.5,13.7,12.6c0,4.7-4.1,8.5-10.8,8.5
			c-7,0-11-4.2-11-4.2L275.6,37z"/>
	</g>
	<g>
		<path class="st3" d="M43.4,40.9c1.3-1.6,2.7-3.7,4.4-6.2c1-1.4,1.7-2.4,2.3-3.2c0.6-0.8,0.9-1.3,1.1-1.5c0.1-0.2,0.1-0.3,0.1-0.5
			c0-0.2-0.1-0.3-0.3-0.4l-3.3-2.2c-0.3-0.2-0.7-0.1-1,0.2c-0.1,0.1-0.3,0.5-0.8,1.2l-1.8,2.9c-0.7,1.2-1.5,2.5-2.4,3.7
			c-0.7,1-1.5,2.1-2.3,3.1L35,34.5c-0.4-0.3-0.8-0.7-1.2-1c2.2-1.9,3.8-3.7,4.8-5.4c1.2-1.9,1.7-3.9,1.7-5.9c0-1.5-0.3-2.8-0.8-4
			c-0.6-1.2-1.4-2.3-2.4-3.1c-1-0.9-2.2-1.5-3.6-2c-1.4-0.4-2.9-0.7-4.6-0.7c-2.9,0-5.6,0.9-8,2.8c-2.4,1.9-3.6,4.2-3.6,7.1
			c0,3,1.3,5.6,3.8,7.8c-1.7,1.3-3.1,2.9-4.2,4.6c-1.3,2-2,4.2-2,6.4c0,3.3,1.2,6,3.5,8c2.3,1.9,5.2,2.9,8.8,2.9
			c2.4,0,4.7-0.6,6.8-1.7c1.9-1.1,4-2.8,6.2-5.2l8.4,6.4c0.1,0.1,0.3,0.2,0.5,0.1c0.2,0,0.3-0.1,0.5-0.3l2.3-3.1
			c0.1-0.1,0.2-0.3,0.1-0.5c0-0.2-0.1-0.3-0.3-0.5L43.4,40.9z M27.4,46.9c-0.9,0-1.8-0.1-2.6-0.4c-0.8-0.3-1.5-0.7-2.1-1.2
			c-0.6-0.5-1-1.1-1.4-1.9c-0.3-0.7-0.5-1.5-0.5-2.4c0-1.4,0.3-2.7,0.8-3.9c0.3-0.6,0.7-1.3,1.3-2c0.5-0.6,1.1-1.4,1.9-2.1
			c2.2,1.8,4.4,3.6,6.5,5.2c2,1.5,3.7,2.8,5.1,4c-1.3,1.4-2.6,2.5-3.9,3.4C31.1,46.5,29.3,46.9,27.4,46.9z M28.9,17.3
			c1.8,0,3.2,0.5,4.3,1.4c1,1,1.5,2.3,1.5,4c0,1.4-0.3,2.7-1,4c-0.6,1.2-1.8,2.6-3.4,4c-2.4-1.9-4.2-3.4-5.4-4.7
			c-1.2-1.2-1.8-2.5-1.8-3.7c0-1.5,0.5-2.7,1.6-3.6C25.8,17.7,27.2,17.3,28.9,17.3z"/>
		<path class="st3" d="M32.7,0.8C14.7,0.8,0,15.5,0,33.5s14.7,32.7,32.7,32.7s32.7-14.7,32.7-32.7S50.7,0.8,32.7,0.8z M32.7,62.1
			C17,62.1,4.2,49.3,4.2,33.5S17,5,32.7,5s28.6,12.8,28.6,28.6S48.5,62.1,32.7,62.1z"/>
	</g>
</g>
</svg>
