<?xml version="1.0" encoding="UTF-8"?>
<svg width="50px" height="50px" viewBox="0 0 50 50" version="1.1" xmlns="http://www.w3.org/2000/svg" xmlns:xlink="http://www.w3.org/1999/xlink">
    <!-- Generator: Sketch 52.1 (67048) - http://www.bohemiancoding.com/sketch -->
    <title>logo</title>
    <desc>Created with Sketch.</desc>
    <defs>
        <polygon id="path-1" points="0 0.0886904762 49.9091964 0.0886904762 49.9091964 50 0 50"></polygon>
    </defs>
    <g id="Page-1" stroke="none" stroke-width="1" fill="none" fill-rule="evenodd">
        <g id="Desktop" transform="translate(-94.000000, -54.000000)">
            <g id="logo" transform="translate(94.000000, 54.000000)">
                <path d="M22.0951102,12.2371589 C23.4789925,12.2371589 24.5839693,12.6079454 25.3717177,13.3389848 C26.1615951,14.0700241 26.544824,15.0517657 26.544824,16.345305 C26.544824,17.3755016 26.2786928,18.390951 25.7549466,19.3621589 C25.258878,20.282805 24.3710643,21.3108949 23.114925,22.4232544 C21.2669099,21.0117376 19.8681243,19.8024679 18.9483748,18.83126 C18.056303,17.8832263 17.6028154,16.9478331 17.6028154,16.0503612 C17.6028154,14.910614 18.0073349,14.0152488 18.8419224,13.3137039 C19.7020584,12.5889848 20.7665832,12.2371589 22.0951102,12.2371589 Z M20.9454234,34.8214286 C20.242837,34.8214286 19.5700573,34.711878 18.9505039,34.4927769 C18.3352085,34.2778892 17.8008171,33.9724117 17.3579747,33.5847713 C16.9172615,33.1992376 16.5595811,32.7252207 16.2934499,32.1732544 C16.0315768,31.6276083 15.8995757,31.0082263 15.8995757,30.334069 C15.8995757,29.2849117 16.1018354,28.2757825 16.4914515,27.3446027 C16.6979693,26.8853331 17.0322301,26.3628612 17.4878468,25.7961477 C17.881721,25.3031701 18.3714024,24.765951 18.9505039,24.1950241 C20.668647,25.58126 22.3591124,26.9148274 23.9835773,28.1599117 C25.4888154,29.3144061 26.7939228,30.3193218 27.9010287,31.1788724 C26.9344401,32.2238162 25.9252706,33.0875803 24.8926815,33.7469904 C23.7791885,34.4611758 22.4506615,34.8214286 20.9454234,34.8214286 Z M33.2598467,30.2181982 C34.2243062,28.9752207 35.3676058,27.4035915 36.6663261,25.5391252 C37.4029773,24.5026083 37.9842079,23.6872994 38.4100178,23.0995185 C38.8422149,22.5012039 39.1126042,22.1177769 39.2297019,21.9471308 C39.3084768,21.83126 39.3382834,21.6880016 39.3084768,21.5489567 C39.2786701,21.4099117 39.1956371,21.2898274 39.0764103,21.2139848 L36.5194217,19.5707263 C36.2788391,19.4169342 35.9509654,19.4801364 35.7891577,19.720305 C35.7316733,19.8045746 35.5358008,20.1121589 35.203669,20.6388443 L33.8133996,22.8614567 C33.2619757,23.7905297 32.6530675,24.7301364 32.0058364,25.6507825 C31.4501545,26.4387039 30.873182,27.2392657 30.2770481,28.0461477 L26.7917938,25.3305578 C26.4660492,25.0714286 26.1466917,24.8207263 25.8422376,24.5742376 C27.5135416,23.14376 28.7611647,21.774378 29.5531712,20.4976926 C30.4388559,19.0693218 30.8880853,17.5587881 30.8880853,16.0082263 C30.8880853,14.9000803 30.6709223,13.8698836 30.2429833,12.9450241 C29.8150443,12.0222713 29.201878,11.2238162 28.4205168,10.5707263 C27.6455427,9.92395666 26.7108899,9.42465891 25.644236,9.08126003 C24.5882274,8.74418138 23.4066048,8.57142857 22.1376912,8.57142857 C19.90006,8.57142857 17.841269,9.27508026 16.0188025,10.663423 C14.1856907,12.0854735 13.2595541,13.8972713 13.2595541,16.0503612 C13.2595541,18.3003612 14.2346589,20.2849117 16.1614488,21.9576645 C14.8882771,22.9773274 13.8067199,24.1571027 12.9423257,25.475923 C11.9374143,26.9990971 11.4285714,28.6360353 11.4285714,30.334069 C11.4285714,32.8474117 12.3376756,34.8804173 14.1324645,36.3846308 C15.8953176,37.8361758 18.1584974,38.5714286 20.8602614,38.5714286 C22.729567,38.5714286 24.4924202,38.1311196 26.0977236,37.2631421 C27.5816712,36.4625803 29.1848456,35.1311196 30.8667948,33.3045746 L37.3582673,38.2111758 C37.4689778,38.2954454 37.6116242,38.3291533 37.7521415,38.3144061 C37.8947878,38.2954454 38.0204017,38.2196027 38.1076927,38.1079454 L39.8939654,35.7483949 C39.9791274,35.6367376 40.0153212,35.4955859 39.9940307,35.3565409 C39.9748693,35.217496 39.8982235,35.0931982 39.7875129,35.0110353 L33.2598467,30.2181982 Z" id="Fill-1" fill="#FFFFFF"></path>
                <g id="Group-5">
                    <mask id="mask-2" fill="white">
                        <use xlink:href="#path-1"></use>
                    </mask>
                    <g id="Clip-4"></g>
                    <path d="M24.9548095,46.8303571 C12.9418631,46.8303571 3.16879762,37.0572917 3.16879762,25.0443452 C3.16879762,13.0313988 12.9418631,3.25833333 24.9548095,3.25833333 C36.967756,3.25833333 46.7408214,13.0313988 46.7408214,25.0443452 C46.7408214,37.0572917 36.967756,46.8303571 24.9548095,46.8303571 M24.9548095,0.0886904762 C11.1943333,0.0886904762 -0.000845238095,11.283869 -0.000845238095,25.0443452 C-0.000845238095,38.8048214 11.1943333,50 24.9548095,50 C38.7152857,50 49.9104643,38.8048214 49.9104643,25.0443452 C49.9104643,11.283869 38.7152857,0.0886904762 24.9548095,0.0886904762" id="Fill-3" fill="#FFFFFF" mask="url(#mask-2)"></path>
                </g>
            </g>
        </g>
    </g>
</svg>