<svg version="1.1" id="Layer_1" xmlns="http://www.w3.org/2000/svg" xmlns:xlink="http://www.w3.org/1999/xlink" x="0px" y="0px"
	 viewBox="0 0 65.4 65.8" style="enable-background:new 0 0 65.4 65.8;" xml:space="preserve">
<style type="text/css">
	.st0{fill:#FFFFFF;}
	.st1{fill:#FF0000;}
	.st2{fill:none;stroke:#000000;stroke-width:2;stroke-miterlimit:10;}
	.st3{fill:#202020;}
	.st4{fill:#FAFAFA;}
</style>
<g>
	<g>
		<path class="st3" d="M43.4,40.1c1.3-1.6,2.7-3.7,4.4-6.2c1-1.4,1.7-2.4,2.3-3.2c0.6-0.8,0.9-1.3,1.1-1.5c0.1-0.2,0.1-0.3,0.1-0.5
			c0-0.2-0.1-0.3-0.3-0.4l-3.3-2.2c-0.3-0.2-0.7-0.1-1,0.2c-0.1,0.1-0.3,0.5-0.8,1.2l-1.8,2.9c-0.7,1.2-1.5,2.5-2.4,3.7
			c-0.7,1-1.5,2.1-2.3,3.1L35,33.7c-0.4-0.3-0.8-0.7-1.2-1c2.2-1.9,3.8-3.7,4.8-5.4c1.2-1.9,1.7-3.9,1.7-5.9c0-1.5-0.3-2.8-0.8-4
			c-0.6-1.2-1.4-2.3-2.4-3.1c-1-0.9-2.2-1.5-3.6-2c-1.4-0.4-2.9-0.7-4.6-0.7c-2.9,0-5.6,0.9-8,2.8c-2.4,1.9-3.6,4.2-3.6,7.1
			c0,3,1.3,5.6,3.8,7.8c-1.7,1.3-3.1,2.9-4.2,4.6c-1.3,2-2,4.2-2,6.4c0,3.3,1.2,6,3.5,8c2.3,1.9,5.2,2.9,8.8,2.9
			c2.4,0,4.7-0.6,6.8-1.7c1.9-1.1,4-2.8,6.2-5.2l8.4,6.4c0.1,0.1,0.3,0.2,0.5,0.1c0.2,0,0.3-0.1,0.5-0.3l2.3-3.1
			c0.1-0.1,0.2-0.3,0.1-0.5c0-0.2-0.1-0.3-0.3-0.5L43.4,40.1z M27.4,46.1c-0.9,0-1.8-0.1-2.6-0.4c-0.8-0.3-1.5-0.7-2.1-1.2
			c-0.6-0.5-1-1.1-1.4-1.9c-0.3-0.7-0.5-1.5-0.5-2.4c0-1.4,0.3-2.7,0.8-3.9c0.3-0.6,0.7-1.3,1.3-2c0.5-0.6,1.1-1.4,1.9-2.1
			c2.2,1.8,4.4,3.6,6.5,5.2c2,1.5,3.7,2.8,5.1,4c-1.3,1.4-2.6,2.5-3.9,3.4C31.1,45.7,29.3,46.1,27.4,46.1z M28.9,16.5
			c1.8,0,3.2,0.5,4.3,1.4c1,1,1.5,2.3,1.5,4c0,1.4-0.3,2.7-1,4c-0.6,1.2-1.8,2.6-3.4,4c-2.4-1.9-4.2-3.4-5.4-4.7
			c-1.2-1.2-1.8-2.5-1.8-3.7c0-1.5,0.5-2.7,1.6-3.6C25.8,16.9,27.2,16.5,28.9,16.5z"/>
		<path class="st3" d="M32.7,0C14.7,0,0,14.7,0,32.7s14.7,32.7,32.7,32.7s32.7-14.7,32.7-32.7S50.7,0,32.7,0z M32.7,61.3
			C17,61.3,4.2,48.5,4.2,32.7S17,4.2,32.7,4.2S61.3,17,61.3,32.7S48.5,61.3,32.7,61.3z"/>
	</g>
</g>
</svg>
