<?xml version="1.0" standalone="no"?>
<!DOCTYPE svg PUBLIC "-//W3C//DTD SVG 20010904//EN"
 "http://www.w3.org/TR/2001/REC-SVG-20010904/DTD/svg10.dtd">
<svg version="1.0" xmlns="http://www.w3.org/2000/svg"
 width="528.000000pt" height="528.000000pt" viewBox="0 0 528.000000 528.000000"
 preserveAspectRatio="xMidYMid meet">
<metadata>
Created by potrace 1.11, written by Peter Selinger 2001-2013
</metadata>
<g transform="translate(0.000000,528.000000) scale(0.100000,-0.100000)"
fill="#000000" stroke="none">
<path d="M2458 5275 c-1 -1 -34 -5 -73 -9 -94 -8 -167 -21 -366 -61 -75 -15
-286 -87 -404 -137 -184 -78 -416 -215 -577 -340 -194 -151 -410 -378 -533
-559 -28 -41 -52 -76 -56 -79 -11 -10 -69 -111 -69 -120 0 -6 -4 -10 -10 -10
-5 0 -10 -6 -10 -14 0 -7 -7 -19 -15 -26 -9 -7 -13 -15 -11 -18 3 -2 -5 -21
-18 -41 -67 -109 -187 -429 -226 -606 -7 -27 -14 -59 -16 -70 -3 -11 -6 -31
-8 -45 -4 -23 -7 -41 -21 -125 -27 -156 -27 -570 0 -713 1 -9 6 -37 10 -62 3
-25 9 -58 11 -75 9 -57 45 -200 60 -240 9 -22 15 -41 15 -42 -1 -2 -1 -4 0 -5
0 -2 2 -10 4 -18 4 -21 54 -157 72 -200 151 -348 321 -600 577 -855 183 -183
337 -302 544 -421 254 -147 572 -265 837 -309 17 -3 41 -7 55 -10 199 -35 548
-40 760 -10 39 6 76 12 220 39 14 3 40 9 58 15 18 5 36 10 40 11 42 5 237 69
309 101 24 11 49 19 57 19 7 0 19 7 26 15 7 8 19 15 27 15 12 0 75 32 238 120
59 31 231 150 315 217 80 64 300 277 365 353 228 269 405 594 508 930 55 178
83 318 104 505 11 95 10 420 -1 525 -5 47 -9 93 -9 103 -1 9 -5 17 -10 17 -4
0 -5 4 -2 10 6 9 -12 114 -36 210 -17 67 -49 183 -56 200 -4 8 -7 17 -8 20 -7
28 -30 93 -46 127 -10 24 -19 47 -19 51 0 5 -19 47 -42 93 -23 46 -42 86 -42
89 -1 3 -13 26 -29 52 -15 26 -27 49 -27 53 0 4 -13 26 -30 50 -16 24 -30 48
-30 53 0 6 -4 12 -8 14 -4 2 -19 21 -32 43 -25 41 -128 180 -167 225 -12 14
-31 36 -43 50 -82 96 -228 234 -364 344 -150 121 -454 297 -631 365 -33 12
-69 27 -80 31 -68 29 -299 94 -374 106 -18 3 -42 8 -52 10 -11 2 -29 6 -41 9
-13 3 -48 7 -78 10 -30 3 -66 8 -80 11 -25 6 -455 15 -462 9z m337 -339 c106
-6 131 -9 260 -31 64 -10 164 -35 255 -63 47 -14 90 -26 95 -28 6 -1 24 -8 40
-15 17 -7 32 -13 35 -14 109 -37 447 -222 498 -272 7 -7 17 -13 20 -13 4 0 18
-10 32 -23 14 -12 35 -30 48 -39 33 -23 183 -161 241 -221 90 -95 251 -304
251 -327 0 -5 5 -10 10 -10 6 0 10 -7 10 -15 0 -8 4 -15 9 -15 13 0 166 -314
205 -420 63 -174 106 -359 123 -535 15 -146 7 -517 -12 -585 -2 -8 -6 -31 -9
-50 -36 -230 -136 -506 -273 -750 -39 -69 -151 -233 -190 -277 -15 -18 -44
-52 -63 -74 -52 -63 -199 -209 -249 -249 -24 -19 -52 -43 -63 -52 -43 -42
-240 -171 -318 -210 -14 -7 -27 -15 -30 -18 -7 -7 -206 -100 -214 -100 -4 0
-27 -9 -50 -20 -69 -31 -297 -94 -416 -115 -38 -6 -98 -14 -173 -23 -74 -9
-413 -8 -462 1 -16 3 -55 9 -85 12 -30 3 -62 8 -71 11 -10 2 -30 6 -45 8 -78
10 -280 70 -409 122 -74 29 -315 150 -325 162 -3 4 -22 16 -43 27 -41 22 -198
137 -262 193 -133 116 -251 241 -343 366 -29 39 -60 79 -68 89 -8 9 -14 20
-14 24 0 3 -6 14 -14 22 -16 18 -42 64 -94 161 -18 36 -37 70 -41 75 -11 15
-75 169 -106 255 -28 79 -74 246 -80 293 -2 15 -6 31 -9 35 -2 4 -7 32 -10 62
-4 30 -8 69 -10 85 -28 214 -23 437 14 655 23 135 22 131 59 265 45 163 139
379 231 530 22 37 40 71 40 76 0 5 3 9 8 9 4 1 23 25 42 55 19 30 38 55 43 55
4 0 7 6 7 14 0 8 3 16 8 18 4 2 29 30 57 63 82 99 141 160 239 250 92 85 293
227 401 285 33 17 67 36 75 41 13 8 113 53 195 88 38 17 135 51 155 56 8 1 47
12 85 24 39 11 81 23 95 25 14 2 45 9 70 14 42 10 76 16 162 27 18 3 80 8 138
11 58 3 106 7 107 8 2 1 22 1 45 0 24 -2 88 -5 143 -8z"/>
<path d="M2228 4345 c-2 -2 -23 -6 -48 -9 -201 -27 -445 -155 -586 -307 -80
-87 -155 -230 -172 -331 -9 -55 -9 -230 0 -286 24 -143 109 -298 233 -426 l58
-59 -26 -19 c-67 -49 -257 -253 -257 -277 0 -6 -4 -11 -8 -11 -11 0 -122 -186
-122 -203 0 -7 -4 -17 -9 -23 -9 -10 -39 -95 -46 -133 -2 -12 -6 -30 -9 -39
-27 -85 -25 -258 4 -387 21 -96 101 -275 122 -275 5 0 8 -6 8 -12 0 -19 107
-128 170 -175 83 -62 220 -131 290 -149 8 -2 43 -10 78 -19 88 -21 141 -27
270 -29 128 -3 210 6 314 35 40 11 78 21 83 22 37 9 142 58 205 95 110 66 230
163 357 287 l112 110 88 -68 c48 -37 167 -127 263 -199 96 -72 180 -136 185
-142 6 -6 28 -24 50 -40 22 -17 42 -32 45 -35 16 -19 73 -41 89 -36 20 6 224
270 224 289 0 6 -1 19 -1 28 -2 15 -70 74 -178 155 -89 66 -210 157 -214 162
-3 3 -12 11 -21 16 -21 13 -130 96 -145 109 -6 6 -36 29 -67 51 -31 22 -57 43
-57 48 0 4 26 42 59 85 32 42 120 166 195 276 158 228 177 256 191 272 6 6 17
21 25 33 8 12 48 68 87 123 40 55 73 108 73 117 0 16 -34 53 -57 62 -5 2 -61
39 -125 82 -108 72 -146 87 -174 69 -7 -4 -39 -50 -72 -102 -34 -52 -65 -99
-69 -105 -4 -5 -46 -73 -92 -150 -47 -77 -105 -169 -130 -205 -74 -107 -233
-320 -238 -320 -5 0 -162 121 -185 142 -7 7 -31 26 -53 43 -22 16 -49 37 -60
46 -11 10 -48 41 -82 69 -35 28 -63 56 -63 60 0 5 9 15 20 23 12 8 49 41 83
74 189 181 323 376 374 548 40 131 48 294 22 410 -6 28 -12 60 -14 73 -4 31
-76 182 -87 182 -4 0 -8 6 -8 14 0 8 -33 48 -72 89 -76 78 -183 154 -259 183
-24 9 -48 20 -54 24 -11 9 -164 47 -222 56 -39 6 -290 14 -295 9z m222 -398
c145 -29 245 -93 300 -192 93 -166 65 -423 -66 -620 -47 -72 -211 -245 -231
-245 -11 0 -139 96 -173 130 -3 3 -32 27 -65 55 -105 87 -259 249 -289 305
-65 120 -66 261 -3 370 30 51 109 123 170 154 87 43 252 63 357 43z m-316
-1352 c60 -48 116 -94 125 -101 45 -37 202 -159 307 -239 142 -108 314 -244
332 -262 7 -7 21 -17 30 -23 15 -8 5 -21 -69 -92 -246 -236 -389 -300 -659
-293 -129 4 -182 17 -274 69 -123 70 -203 179 -227 313 -12 64 -6 202 12 264
7 24 13 46 14 49 22 101 89 205 224 351 35 39 67 66 70 61 3 -5 55 -48 115
-97z"/>
</g>
</svg>
