<?xml version="1.0" encoding="utf-8"?>
<!-- Generator: Adobe Illustrator 22.1.0, SVG Export Plug-In . SVG Version: 6.00 Build 0)  -->
<svg version="1.1" id="Layer_1" xmlns="http://www.w3.org/2000/svg" xmlns:xlink="http://www.w3.org/1999/xlink" x="0px" y="0px"
	 viewBox="0 0 65.4 65.8" style="enable-background:new 0 0 65.4 65.8;" xml:space="preserve">
<style type="text/css">
	.st0{fill:#5B616A;}
</style>
<g>
	<g>
		<path class="st0" d="M48.4,46.7c2.1-2.5,4.3-5.9,7-9.8c1.6-2.2,2.7-3.8,3.6-5.1c1-1.3,1.4-2.1,1.7-2.4c0.2-0.3,0.2-0.5,0.2-0.8
			s-0.2-0.5-0.5-0.6l-5.2-3.5c-0.5-0.3-1.1-0.2-1.6,0.3c-0.2,0.2-0.5,0.8-1.3,1.9l-2.9,4.6c-1.1,1.9-2.4,4-3.8,5.9
			c-1.1,1.6-2.4,3.3-3.6,4.9l-7-5.6c-0.6-0.5-1.3-1.1-1.9-1.6c3.5-3,6-5.9,7.6-8.6c1.9-3,2.7-6.2,2.7-9.4c0-2.4-0.5-4.4-1.3-6.3
			c-1-1.9-2.2-3.6-3.8-4.9c-1.6-1.4-3.5-2.4-5.7-3.2c-2.2-0.6-4.6-1.1-7.3-1.1c-4.6,0-8.9,1.4-12.7,4.4s-5.7,6.7-5.7,11.3
			c0,4.8,2.1,8.9,6,12.4c-2.7,2.1-4.9,4.6-6.7,7.3C4.4,40,3.2,43.5,3.2,47c0,5.2,1.9,9.5,5.6,12.7c3.6,3,8.2,4.6,14,4.6
			c3.8,0,7.5-1,10.8-2.7c3-1.7,6.3-4.4,9.8-8.2l13.3,10.1c0.2,0.2,0.5,0.3,0.8,0.2c0.3,0,0.5-0.2,0.8-0.5l3.6-4.9
			c0.2-0.2,0.3-0.5,0.2-0.8c0-0.3-0.2-0.5-0.5-0.8L48.4,46.7z M23.1,56.2c-1.4,0-2.9-0.2-4.1-0.6c-1.3-0.5-2.4-1.1-3.3-1.9
			c-1-0.8-1.6-1.7-2.2-3c-0.5-1.1-0.8-2.4-0.8-3.8c0-2.2,0.5-4.3,1.3-6.2c0.5-1,1.1-2.1,2.1-3.2c0.8-1,1.7-2.2,3-3.3
			c3.5,2.9,7,5.7,10.3,8.2c3.2,2.4,5.9,4.4,8.1,6.3c-2.1,2.2-4.1,4-6.2,5.4C28.9,55.6,26.1,56.2,23.1,56.2z M25.5,9.3
			c2.9,0,5.1,0.8,6.8,2.2c1.6,1.6,2.4,3.6,2.4,6.3c0,2.2-0.5,4.3-1.6,6.3c-1,1.9-2.9,4.1-5.4,6.3c-3.8-3-6.7-5.4-8.6-7.5
			c-1.9-1.9-2.9-4-2.9-5.9c0-2.4,0.8-4.3,2.5-5.7C20.5,9.9,22.8,9.3,25.5,9.3z"/>
	</g>
</g>
</svg>
