<?xml version="1.0" encoding="utf-8"?>
<!-- Generator: Adobe Illustrator 22.1.0, SVG Export Plug-In . SVG Version: 6.00 Build 0)  -->
<svg version="1.1" id="Layer_1" xmlns="http://www.w3.org/2000/svg" xmlns:xlink="http://www.w3.org/1999/xlink" x="0px" y="0px"
	 viewBox="0 0 200 200" style="enable-background:new 0 0 200 200;" xml:space="preserve">
<style type="text/css">
	.st0{fill:#FFFFFF;}
</style>
<g>
	<path class="st0" d="M149.9,13.5c15.3,9,27.4,21.1,36.4,36.4c9,15.3,13.5,31.9,13.5,49.9s-4.5,34.6-13.5,49.9
		c-9,15.3-21.1,27.4-36.4,36.4c-15.3,9-31.9,13.5-49.9,13.5s-34.6-4.5-49.9-13.5c-15.3-9-27.4-21.1-36.4-36.4S0.2,117.7,0.2,99.8
		s4.5-34.6,13.5-49.9s21.1-27.4,36.4-36.4S82,0,100,0S134.6,4.5,149.9,13.5z M59.8,30.2c-12.3,7.2-22.1,17-29.4,29.4
		S19.5,85.3,19.5,99.8s3.6,27.9,10.9,40.2s17,22.1,29.4,29.4c12.3,7.2,25.7,10.9,40.2,10.9s27.9-3.6,40.2-10.9
		c12.3-7.2,22.1-17,29.4-29.4c7.2-12.3,10.9-25.7,10.9-40.2s-3.6-27.9-10.9-40.2c-7.2-12.3-17-22.1-29.4-29.4S114.5,19.3,100,19.3
		S72.1,22.9,59.8,30.2z M157.9,75.2c0,1.3-0.5,2.4-1.6,3.2l-69.2,68.8c-1.1,1.1-2.3,1.6-3.6,1.6c-1.3,0-2.4-0.5-3.2-1.6l-36.6-36.6
		c-1.1-1.1-1.6-2.3-1.6-3.6s0.5-2.4,1.6-3.2l9.3-9.3c0.8-0.8,1.9-1.2,3.2-1.2s2.5,0.4,3.6,1.2l23.7,24.5l57.1-56.7
		c0.8-0.8,1.9-1.2,3.2-1.2c1.3,0,2.5,0.5,3.6,1.6l8.9,8.9C157.4,72.7,157.9,73.9,157.9,75.2z"/>
</g>
</svg>
