<?xml version="1.0" encoding="utf-8"?>
<!-- Generator: Adobe Illustrator 22.1.0, SVG Export Plug-In . SVG Version: 6.00 Build 0)  -->
<svg version="1.1" id="Layer_1" xmlns="http://www.w3.org/2000/svg" xmlns:xlink="http://www.w3.org/1999/xlink" x="0px" y="0px"
	 viewBox="0 0 200 200" style="enable-background:new 0 0 200 200;" xml:space="preserve">
<style type="text/css">
	.st0{fill:#5B616A;}
</style>
<path class="st0" d="M179.6,59c0.1,1.8,0.1,3.6,0.1,5.4c0,54.9-41.8,118.1-118.1,118.1c-23.5,0-45.4-6.8-63.7-18.6
	c3.3,0.4,6.5,0.5,10,0.5c19.4,0,37.3-6.6,51.5-17.7c-18.2-0.4-33.5-12.3-38.8-28.8c2.6,0.4,5.1,0.6,7.8,0.6c3.7,0,7.4-0.5,10.9-1.4
	c-19-3.9-33.3-20.6-33.3-40.7c0-0.1,0-0.4,0-0.5c5.5,3.1,11.9,5,18.8,5.3C13.7,73.6,6.4,60.9,6.4,46.5c0-7.7,2.1-14.8,5.7-21
	C32.4,50.8,63.2,67.2,97.6,69c-0.6-3.1-1-6.3-1-9.5c0-22.9,18.5-41.5,41.5-41.5c12,0,22.7,5,30.3,13.1c9.4-1.8,18.4-5.3,26.4-10
	c-3.1,9.6-9.6,17.7-18.2,22.9c8.3-0.9,16.5-3.2,23.9-6.4C194.8,45.8,187.7,53.1,179.6,59z"/>
</svg>
