<?xml version="1.0" encoding="utf-8"?>
<!-- Generator: Adobe Illustrator 22.1.0, SVG Export Plug-In . SVG Version: 6.00 Build 0)  -->
<svg version="1.1" id="Layer_1" xmlns="http://www.w3.org/2000/svg" xmlns:xlink="http://www.w3.org/1999/xlink" x="0px" y="0px"
	 viewBox="0 0 200 200" style="enable-background:new 0 0 200 200;" xml:space="preserve">
<style type="text/css">
	.st0{fill:#5B616A;}
</style>
<path class="st0" d="M34.9,56.2h-0.2c-12.4,0-20.4-8.5-20.4-19.2c0-10.9,8.3-19.2,20.8-19.2c12.7,0,20.5,8.3,20.6,19.2
	C55.8,47.7,47.8,56.2,34.9,56.2z M53.4,182.4h-37V71.4h37V182.4z M186.4,182.4h-36.9V123c0-14.9-5.4-25.1-18.7-25.1
	c-10.2,0-16.2,6.8-18.9,13.4c-0.9,2.5-1.2,5.7-1.2,9.1v62H73.8c0.4-100.6,0-111.1,0-111.1h36.9v16.1h-0.2
	c4.8-7.6,13.6-18.7,33.5-18.7c24.3,0,42.5,15.9,42.5,50V182.4z"/>
</svg>
